<?xml version="1.0" standalone="no"?>
<!DOCTYPE svg PUBLIC "-//W3C//DTD SVG 20010904//EN"
 "http://www.w3.org/TR/2001/REC-SVG-20010904/DTD/svg10.dtd">
<svg version="1.0" xmlns="http://www.w3.org/2000/svg"
 width="160.000000pt" height="160.000000pt" viewBox="0 0 160.000000 160.000000"
 preserveAspectRatio="xMidYMid meet">
<metadata>
Created by potrace 1.11, written by Peter Selinger 2001-2013
</metadata>
<g transform="translate(0.000000,160.000000) scale(0.100000,-0.100000)"
fill="#000000" stroke="none">
<path d="M180 1545 c-30 -25 -56 -49 -58 -53 -3 -11 186 -137 194 -129 7 7
-65 227 -74 227 -4 -1 -32 -21 -62 -45z"/>
<path d="M430 1516 c0 -24 -3 -64 -6 -90 -4 -25 -3 -46 2 -45 17 1 117 130
108 138 -5 5 -30 15 -56 24 l-48 16 0 -43z"/>
<path d="M1332 1368 c-23 -62 -40 -114 -38 -116 6 -5 206 120 206 129 0 8
-111 99 -121 99 -3 0 -25 -50 -47 -112z"/>
<path d="M1113 1449 c-18 -5 -33 -14 -33 -20 0 -5 19 -39 42 -75 47 -76 52
-73 62 34 7 71 7 72 -16 71 -13 0 -38 -5 -55 -10z"/>
<path d="M45 1366 c-8 -20 -16 -46 -18 -58 -2 -22 1 -23 87 -26 103 -3 102 -4
6 72 l-60 48 -15 -36z"/>
<path d="M403 1243 c-18 -37 -19 -38 -70 -35 -41 3 -55 0 -72 -17 -27 -27 -27
-67 1 -111 15 -25 21 -48 19 -80 -2 -41 3 -53 44 -105 l46 -60 -31 -3 c-27 -3
-38 4 -73 44 -92 104 -102 129 -65 164 l23 22 -27 -12 c-31 -15 -43 -51 -27
-83 6 -12 38 -52 71 -89 33 -38 57 -68 53 -68 -3 0 -23 10 -44 22 -33 19 -43
20 -65 10 -65 -30 -48 -68 102 -230 177 -191 237 -246 304 -282 67 -36 161
-70 193 -70 17 0 39 -24 90 -95 37 -52 73 -95 81 -95 8 0 -9 29 -40 67 -30 37
-53 69 -51 71 2 2 28 1 58 -3 55 -7 56 -8 92 -66 20 -33 40 -57 44 -54 5 2 22
-13 40 -35 26 -33 38 -40 66 -40 48 0 134 34 175 70 l35 30 -38 -24 -38 -25
-52 36 c-29 20 -66 48 -84 63 -52 46 -152 91 -258 117 -159 38 -227 84 -428
288 -92 93 -170 180 -173 192 -9 36 5 63 32 63 41 0 62 -17 193 -147 68 -67
127 -123 132 -123 27 0 -4 45 -113 162 -238 255 -248 268 -235 318 3 11 2 20
-2 20 -13 0 -51 77 -51 102 0 33 18 48 57 48 31 0 33 -2 33 -36 0 -52 20 -113
39 -119 9 -3 90 -79 181 -170 144 -145 200 -188 200 -156 0 5 -62 71 -137 148
-210 212 -231 235 -247 275 -15 35 -15 38 8 65 20 24 41 73 31 73 -2 0 -12
-17 -22 -37z m-157 -418 c13 -9 23 -29 27 -54 3 -22 14 -52 25 -66 35 -44 345
-360 377 -384 48 -35 -7 -6 -90 48 -105 68 -381 354 -406 420 -17 44 25 66 67
36z"/>
<path d="M539 1273 c-12 -3 -14 -13 -9 -51 6 -50 1 -44 302 -355 35 -36 63
-42 56 -12 -2 6 -67 79 -146 161 -141 147 -196 221 -185 249 3 8 4 14 2 14 -2
-1 -11 -3 -20 -6z"/>
<path d="M1427 1168 c-43 -17 -75 -34 -70 -38 8 -8 138 -50 154 -50 11 0 12
90 1 106 -5 8 -30 3 -85 -18z"/>
<path d="M1060 1147 c0 -2 14 -16 31 -33 32 -29 32 -29 15 -2 -14 21 -46 46
-46 35z"/>
<path d="M869 1119 l-24 -20 23 11 c13 6 30 9 37 6 25 -9 73 -86 80 -126 5
-32 18 -49 59 -85 29 -25 56 -45 60 -45 14 0 5 40 -13 52 -23 16 -91 104 -91
118 0 6 -4 10 -10 10 -5 0 -17 14 -25 31 -18 34 -50 69 -64 69 -5 0 -19 -9
-32 -21z"/>
<path d="M1018 1123 c-19 -23 -29 -61 -17 -69 5 -3 9 6 9 20 0 14 9 35 20 46
11 11 16 20 12 20 -5 0 -16 -8 -24 -17z"/>
<path d="M1155 1028 c9 -15 40 -47 70 -72 60 -52 75 -79 115 -214 20 -65 30
-119 30 -164 0 -66 1 -67 33 -83 18 -8 56 -36 85 -61 33 -29 52 -40 52 -30 0
8 -35 39 -78 70 l-78 55 0 63 c0 45 -10 95 -37 178 l-36 115 -87 85 c-47 47
-79 73 -69 58z"/>
<path d="M1140 840 c20 -13 33 -13 25 0 -3 6 -14 10 -23 10 -15 0 -15 -2 -2
-10z"/>
</g>
</svg>
